<?xml version="1.0" standalone="no"?>
<!DOCTYPE svg PUBLIC "-//W3C//DTD SVG 20010904//EN"
 "http://www.w3.org/TR/2001/REC-SVG-20010904/DTD/svg10.dtd">
<svg version="1.0" xmlns="http://www.w3.org/2000/svg"
 width="512.000000pt" height="512.000000pt" viewBox="0 0 512.000000 512.000000"
 preserveAspectRatio="xMidYMid meet">
<metadata>
Created by potrace 1.14, written by Peter Selinger 2001-2017
</metadata>
<g transform="translate(0.000000,512.000000) scale(0.100000,-0.100000)"
fill="#000000" stroke="none">
<path d="M3360 4461 c0 -6 -3 -10 -7 -9 -7 3 -82 -39 -93 -51 -3 -4 -14 -7
-24 -9 -10 -2 -36 -14 -57 -28 -21 -13 -43 -24 -47 -24 -5 0 -21 -9 -35 -20
-15 -12 -30 -21 -34 -20 -4 0 -15 -6 -24 -13 -8 -8 -23 -13 -32 -11 -10 1 -15
-1 -12 -6 3 -4 -12 -15 -33 -23 -21 -9 -62 -29 -90 -46 -29 -17 -52 -28 -52
-25 0 3 -7 -2 -16 -10 -8 -9 -24 -16 -34 -16 -10 0 -20 -4 -22 -9 -1 -5 -21
-17 -43 -28 -22 -11 -76 -39 -120 -63 -44 -23 -93 -50 -110 -58 -16 -8 -33
-20 -36 -25 -3 -5 -9 -8 -13 -7 -12 3 -66 -25 -66 -33 0 -5 -4 -5 -10 -2 -5 3
-10 2 -10 -3 0 -9 -64 -37 -66 -30 0 2 -8 -5 -18 -15 -10 -9 -21 -15 -26 -12
-5 3 -10 1 -12 -4 -3 -8 -77 -49 -233 -129 -38 -20 -73 -40 -76 -45 -4 -5 -12
-6 -18 -3 -6 4 -14 0 -17 -8 -3 -9 -12 -16 -19 -16 -7 0 -28 -11 -48 -24 -19
-13 -38 -22 -41 -18 -3 3 -6 0 -6 -6 0 -7 -3 -11 -7 -10 -9 1 -46 -13 -53 -21
-3 -3 -27 -17 -55 -30 -27 -13 -57 -29 -65 -36 -8 -7 -32 -18 -52 -26 -21 -7
-38 -17 -38 -21 0 -4 -7 -8 -15 -8 -8 0 -15 -5 -15 -10 0 -6 -3 -9 -7 -8 -5 1
-22 -5 -39 -15 -17 -9 -34 -14 -38 -12 -3 3 -4 2 -2 -1 2 -3 -48 -33 -112 -66
-65 -33 -123 -65 -129 -70 -7 -6 -13 -8 -13 -4 0 3 -9 -2 -20 -12 -12 -9 -24
-17 -28 -17 -4 -1 -32 -14 -62 -30 -30 -16 -58 -28 -62 -27 -5 1 -8 -2 -8 -8
0 -5 -7 -10 -15 -10 -8 0 -15 -3 -15 -7 0 -5 -20 -16 -45 -26 -25 -11 -45 -24
-45 -30 0 -6 -3 -8 -6 -4 -3 3 -27 -7 -52 -21 -26 -15 -65 -36 -87 -47 -22
-11 -46 -26 -53 -32 -7 -7 -22 -13 -33 -13 -11 0 -22 -7 -25 -15 -4 -8 -10
-12 -16 -9 -5 3 -17 0 -26 -8 -9 -8 -34 -23 -54 -33 -21 -11 -39 -24 -40 -30
0 -5 -2 -14 -3 -20 -2 -5 -3 -14 -4 -18 -1 -9 -84 33 -89 46 -2 4 -9 7 -16 7
-18 0 -87 60 -81 71 4 5 2 9 -4 9 -6 0 -8 7 -5 15 4 8 1 15 -7 15 -7 0 -10 3
-6 6 3 3 -1 25 -10 47 -8 23 -17 55 -19 71 -2 17 -7 32 -12 35 -14 12 -10 47
11 86 12 22 24 42 27 45 3 3 19 32 35 65 17 33 33 62 38 63 4 2 7 12 7 23 0
10 4 19 9 19 9 0 27 40 22 49 -2 2 3 8 11 13 8 6 9 11 3 14 -10 4 -11 275 0
301 9 24 -16 13 -44 -19 -89 -100 -94 -108 -81 -123 7 -8 9 -15 6 -15 -4 0 2
-10 14 -22 11 -12 20 -25 20 -29 0 -5 14 -28 31 -53 20 -31 28 -53 24 -66 -3
-11 -10 -20 -15 -20 -5 0 -39 -29 -75 -64 -36 -35 -65 -62 -65 -59 0 3 -9 -4
-19 -16 -20 -23 -20 -35 -6 -131 3 -19 8 -62 11 -95 3 -33 7 -75 9 -94 5 -38
49 -101 71 -101 8 0 12 -4 9 -10 -3 -5 1 -10 9 -10 9 0 16 -4 16 -10 0 -5 23
-31 51 -57 124 -115 127 -120 119 -133 -5 -8 -6 -18 -4 -22 9 -14 10 -118 1
-118 -4 0 -5 -5 -2 -11 11 -17 11 -99 0 -99 -6 0 -5 -3 1 -8 6 -4 10 -16 8
-26 -7 -49 -7 -82 0 -94 4 -6 4 -12 -1 -12 -9 0 -8 -163 1 -186 3 -8 2 -14 -2
-14 -4 0 -7 -83 -7 -184 l0 -184 -22 9 c-17 6 -25 4 -32 -10 -6 -10 -8 -21 -5
-23 5 -6 11 -33 19 -83 2 -16 7 -43 10 -60 18 -97 35 -195 41 -229 3 -21 8
-48 11 -60 2 -11 7 -39 10 -60 2 -22 9 -48 14 -58 7 -12 6 -18 -1 -18 -7 0 -8
-6 -1 -19 6 -10 12 -36 15 -57 2 -21 5 -39 6 -39 2 0 8 -34 15 -80 3 -22 8
-51 10 -65 3 -14 7 -38 10 -55 18 -122 33 -177 49 -187 15 -11 224 -10 230 0
3 5 -16 26 -41 48 -75 63 -95 85 -89 100 3 8 2 14 -2 14 -4 0 -8 19 -10 43 -3
49 -8 92 -12 92 -11 0 -19 206 -10 257 5 26 12 66 15 90 3 24 8 59 11 78 2 19
6 51 9 70 2 19 6 49 9 65 3 17 8 57 12 90 3 33 7 60 8 60 0 0 51 43 111 95 61
51 118 100 127 108 15 13 21 12 45 -3 16 -10 35 -27 44 -37 9 -10 22 -18 28
-18 7 0 9 -4 6 -10 -3 -5 1 -10 9 -10 8 0 20 -8 25 -17 6 -10 11 -15 11 -11 0
4 13 -6 28 -22 16 -16 32 -27 35 -23 4 3 7 -1 7 -10 0 -9 5 -17 11 -17 7 0 25
-13 40 -30 16 -16 29 -27 29 -23 0 4 8 -2 18 -13 10 -10 38 -35 61 -54 23 -19
52 -43 63 -52 12 -10 25 -18 30 -18 5 0 6 -4 3 -10 -3 -5 -2 -10 3 -10 5 0 24
-13 43 -29 18 -16 38 -27 44 -24 5 4 7 3 3 -2 -7 -7 14 -35 27 -35 4 0 19 -12
34 -27 42 -41 81 -74 81 -67 0 3 12 -9 26 -26 15 -17 28 -29 31 -27 2 3 19
-10 37 -27 18 -17 50 -46 72 -65 38 -33 39 -34 17 -44 -13 -6 -23 -16 -23 -24
0 -8 -4 -12 -9 -9 -9 6 -68 -40 -61 -48 11 -10 116 -59 127 -59 7 0 13 -4 13
-9 0 -4 9 -8 20 -8 11 0 20 -4 20 -9 0 -5 12 -12 28 -16 15 -3 60 -22 100 -41
41 -19 75 -34 78 -34 2 0 27 -11 56 -24 61 -27 81 -34 89 -32 16 3 40 -37 37
-63 -4 -38 20 -81 46 -82 29 -2 140 2 143 5 2 1 -14 20 -33 42 -20 21 -55 61
-78 88 -22 28 -51 60 -62 72 -12 13 -19 25 -16 28 3 3 1 6 -4 6 -5 0 -18 16
-28 35 -11 19 -23 35 -28 35 -4 0 -8 4 -8 10 0 5 -11 26 -25 46 -14 20 -25 33
-25 28 0 -5 -12 10 -26 34 -14 23 -29 42 -35 42 -5 0 -9 9 -9 21 0 11 -4 17
-10 14 -5 -3 -10 -1 -10 5 0 6 -11 23 -25 38 -24 26 -28 36 -27 77 0 22 11
190 18 295 3 36 6 86 7 113 1 26 5 47 10 47 4 0 5 5 2 10 -9 15 -5 14 158 -41
84 -28 160 -52 169 -54 9 -2 25 -8 36 -14 27 -14 72 -16 102 -4 14 6 28 11 33
12 4 0 8 1 10 2 1 0 16 3 32 5 17 3 37 7 45 11 8 3 25 7 37 9 13 1 98 22 189
45 l167 42 44 -23 c23 -12 43 -27 43 -31 0 -5 6 -9 13 -9 8 0 27 -13 43 -30
16 -16 33 -30 37 -30 19 0 35 -27 25 -43 -5 -10 -6 -22 -3 -27 3 -6 2 -10 -4
-10 -6 0 -18 -22 -28 -50 -10 -27 -24 -52 -33 -56 -26 -10 -110 -15 -123 -7
-6 4 -21 9 -32 10 -11 2 -24 8 -29 13 -6 6 -16 10 -23 10 -8 0 -32 9 -54 19
-21 11 -36 14 -33 8 5 -8 2 -7 -7 0 -28 27 -55 15 -88 -38 -17 -28 -31 -53
-31 -56 0 -4 -6 -14 -14 -22 -8 -9 -23 -33 -35 -54 -20 -36 -20 -37 -1 -27 10
6 23 9 27 8 7 -2 37 3 103 18 115 25 248 25 288 0 11 -7 3 -56 -9 -56 -5 0 -8
-3 -7 -7 0 -5 -2 -15 -5 -23 -3 -8 -15 -37 -26 -65 -10 -27 -30 -78 -44 -112
-14 -34 -22 -64 -19 -67 3 -3 0 -6 -6 -6 -20 0 -13 -17 21 -49 17 -17 42 -41
55 -53 12 -13 22 -20 22 -16 0 3 15 -8 33 -25 18 -18 51 -47 73 -64 38 -31 50
-61 31 -79 -4 -4 -3 -12 2 -18 6 -7 53 -10 136 -8 l127 3 -36 34 c-20 18 -36
36 -36 40 0 3 -12 18 -27 34 -65 65 -108 124 -111 149 -2 26 -4 250 -3 324 l1
36 45 -3 c25 -3 49 -6 54 -9 4 -3 30 -8 57 -12 27 -3 55 -11 62 -16 8 -7 12
-7 12 1 0 9 5 9 20 1 11 -6 38 -12 60 -15 36 -3 41 -1 46 21 3 13 10 24 15 24
5 0 9 5 9 10 0 6 8 22 17 37 10 14 18 33 19 41 2 8 12 24 23 36 12 12 21 25
21 28 0 3 16 22 36 42 l36 36 -26 32 c-15 18 -30 38 -34 43 -4 6 -29 36 -55
68 -26 33 -47 66 -47 75 0 14 85 122 118 149 8 7 12 21 9 33 -4 16 0 20 19 21
24 1 42 5 47 9 2 2 21 6 64 14 18 3 42 10 55 14 38 13 60 8 69 -15 5 -15 5
-23 -3 -23 -7 0 -7 -4 1 -13 6 -8 8 -16 5 -20 -6 -5 -9 -40 -19 -212 -2 -38
-6 -85 -8 -103 -5 -35 13 -53 63 -60 14 -2 48 -10 75 -18 28 -7 53 -14 57 -15
4 0 21 -4 38 -9 33 -9 48 0 80 50 8 13 23 32 33 42 9 10 17 23 17 28 0 6 5 10
10 10 6 0 10 6 10 14 0 8 4 16 8 18 4 2 21 21 37 43 35 47 40 53 63 82 9 11
24 31 32 43 8 12 27 36 42 54 15 17 30 39 34 49 3 9 9 17 13 17 4 0 13 12 19
26 7 14 17 22 22 19 6 -4 9 -2 8 3 -3 9 58 97 89 130 7 7 54 14 125 18 62 3
128 6 146 7 17 1 32 4 32 8 0 4 -23 22 -51 40 -28 18 -56 37 -63 43 -25 23
-105 76 -115 76 -6 0 -11 3 -11 8 0 4 -10 12 -22 17 -13 6 -22 16 -20 23 1 7
-1 12 -5 12 -5 0 -8 25 -8 55 0 30 4 55 10 55 5 0 4 5 -2 11 -6 6 -8 23 -3 45
4 19 5 34 1 34 -3 0 -7 48 -7 108 -1 59 -2 168 -3 243 l-1 137 -76 76 c-42 42
-77 76 -79 76 -1 0 -62 59 -135 130 -73 72 -137 130 -142 130 -5 0 -6 5 -3 10
3 6 1 10 -5 10 -14 0 -40 25 -40 38 0 5 -9 12 -21 15 -12 3 -18 10 -15 16 4 5
-3 12 -14 16 -11 3 -20 10 -20 15 0 5 -12 16 -27 24 -16 8 -24 15 -19 16 13 0
-31 40 -44 40 -6 0 -9 4 -6 9 3 5 -9 20 -27 34 -17 14 -60 52 -93 85 -34 34
-65 58 -68 55 -3 -4 -6 -1 -6 5 0 10 -76 92 -86 92 -3 0 -18 16 -35 35 -17 19
-35 32 -40 29 -5 -3 -8 -1 -7 4 2 7 -139 152 -148 152 -8 0 -84 85 -84 93 0 6
-3 7 -6 4 -4 -4 -26 13 -50 36 -122 120 -154 149 -154 138z"/>
</g>
</svg>
